<?xml version="1.0" encoding="UTF-8"?>
<svg id="Layer_2" data-name="Layer 2" xmlns="http://www.w3.org/2000/svg" viewBox="0 0 29.48 35.9">
  <defs>
    <style>
      .cls-1 {
        fill: #fff;
        stroke: #231f20;
        stroke-miterlimit: 10;
        stroke-width: .2px;
      }

      .cls-2 {
        fill: #f8fbfa;
      }

      .cls-3 {
        fill: #917ced;
      }
    </style>
  </defs>
  <g id="Layer_1-2" data-name="Layer 1">
    <g>
      <path d="M27.15,12.38c.06,.21,.23,.49,.15,.62-.52,.89,.11,1.53,.44,2.22,1.43,3.05,1.54,6.25,1.05,9.5-.28,1.85-.73,3.68-1.12,5.52-.28,1.32-.16,2.58,.59,3.71,.38,.57,.76,1.25,.14,1.65-.51,.33-1.38,.39-1.98,.21-.52-.16-.96-.78-1.31-1.28-1.14-1.62-2.65-2.51-4.62-2.72-3.4-.37-6.77-.89-10.04-2-.7-.24-1.47-.27-2.21-.37-1.17-.15-2.09-.58-2.49-1.82-.32-.99-1-1.68-1.93-2.21-.45-.26-.75-.85-1.01-1.34-.45-.84-.78-1.74-1.24-2.58-.65-1.2-.54-2.43-.18-3.65,.16-.53,.14-.86-.2-1.34-.93-1.3-1.34-2.76-.87-4.37,.07-.25,.1-.58,0-.8-.58-1.15-.24-2.25,.04-3.39,.21-.83,.29-1.7,.34-2.56,.06-.94-.09-1.9,.06-2.81,.25-1.48,1.39-2,2.64-1.22,.85,.53,1.5,.39,2.23-.15,.52-.38,1.09-.72,1.68-1,.74-.35,1.45-.22,2.1,.33,.18,.15,.54,.16,.81,.12,.83-.13,1.64-.42,2.48-.47,1.55-.1,2.76,.48,3.32,2.15,.3-.04,.6-.12,.9-.12,1.09,.02,2.21-.09,3.27,.12,2.46,.5,3.52,2.24,2.9,4.68-.32,1.26-.47,2.41,.69,3.32,1.35-.39,2.32,.05,3.09,1.4-.62-.41-1.21-.89-1.87-1.21-.59-.28-1.09,.1-.97,.67,.18,.89,.58,1.66,1.47,2.05,.97,.43,1.42,.19,1.65-.86ZM4.12,3.29c-.05-.37,.03-.95-.16-1.06-.59-.33-1.31-.7-1.92-.62-.35,.05-.79,.94-.81,1.48-.03,.59,.38,1.19,.6,1.78,.5-.18,.99-.37,1.49-.55-.76,.78-1.12,1.72-1.02,2.81,.03,.3,.24,.59,.37,.89,.29-.14,.64-.22,.85-.43,.88-.93,1.73-1.9,2.58-2.86-.57,.85-1.2,1.67-1.69,2.57-.49,.89-.9,1.83-1.22,2.79-.33,1,.65,1.4,1.19,1.9,.12,.11,.94-.48,1.41-.79,.17-.11,.26-.35,.42-.5,1.47-1.48,2.94-2.96,4.41-4.44-.67,.75-1.32,1.51-2.01,2.23-1.19,1.25-2.02,2.71-2.53,4.36-.22,.72-.34,1.47-.59,2.18-.52,1.43-.14,2.7,.58,3.94,.22,.37,.35,.79,.53,1.18,.75,1.54,1.29,3.26,2.33,4.57,.89,1.13,2.37,1.8,3.59,2.67,.03,.02,.11-.04,.22-.09-.17-.28-.34-.55-.61-.97,.35,.12,.52,.17,.68,.24,1.04,.48,2.07,.99,3.12,1.45,.89,.39,1.95,.55,2.66,1.14,.86,.72,1.7,1.2,2.79,1.5,1.49,.4,2.81,1.2,3.79,2.48,.55,.71,1.28,1.22,2.26,1.3,.03-.2,.07-.3,.06-.38-.02-.12-.06-.25-.13-.35-1.2-1.8-.64-3.74-.01-5.43,1.1-2.92,1.27-5.88,1.07-8.89-.12-1.76-.71-3.41-1.74-4.87-1.08,.48-2.41,.19-3.15-.65-.9-1.03-.98-1.86-.3-3.02-.85-1.08-1.99-1.11-3.27-.07-.66,.53-.55,.94,.51,2.07,.26,.27,.47,.59,.7,.89,.26,.33,.51,.67,.76,1.01l-.29,.29-3.48-2.17c-.01,1.15,.73,1.7,1.44,2.2,.66,.47,1.46,.73,2.13,1.19,2.04,1.39,3.13,3.36,3.05,5.83-.06,1.81-.35,3.62-.54,5.43-.07,.68-.28,1.47,.45,1.89,.82,.48,.86,1.24,.98,2-.25-.28-.38-.62-.56-.93-.15-.25-.33-.51-.56-.68-.59-.45-1.2-.87-1.82-1.28-.52-.34-1.03-.73-1.6-.93-1.22-.43-2.48-.75-3.73-1.11-1.04-.3-2.08-.58-2.95-.82-.5-.47-.92-1.02-1.47-1.33-.57-.31-1.26-.39-1.84-.55,.17-.08,.46-.22,.94-.45-.33-.91-.49-1.89-1-2.62-.48-.69-1.34-1.11-2.03-1.65,.76-1.06,1.74-2.24,2.52-3.55,1.41-2.39,3.63-3.95,5.64-5.71,1.26-1.1,2.98-1.74,3.67-3.42,1.2-2.93,1.13-3.15-1.95-3.74-2.06-.39-3.72,.59-5.4,1.53,.45-.34,.86-.73,1.34-.99,.64-.35,.75-.89,.29-1.28-.61-.52-1.37-1.05-2.13-1.19-1.47-.27-2.84,.15-3.96,1.25-.97,.96-2,1.87-3,2.8,.68-.78,1.34-1.57,2.04-2.33,.47-.5,.85-1.14,.38-1.63-.25-.26-1.06,0-1.62,.05-.14,.01-.26,.16-.39,.25-.89,.6-1.84,1.15-2.35,2.17Zm-1.72,13.25c.27-.52,.1-.91-.29-1.33-.64-.71-1.05-1.54-.9-2.56,.05-.35,.09-.71,.16-1.22-1.36,1.56-.77,4.43,.94,5.26-.23,.94-.55,1.87-.67,2.82-.07,.52,.13,1.11,.32,1.62,.35,.92,.77,1.82,1.21,2.71,.21,.42,.46,.95,.83,1.14,1.06,.53,1.71,1.37,2.11,2.42,.35,.92,1.01,1.37,1.95,1.57,1.65,.34,3.29,.75,4.95,1.1,.94,.2,1.9,.31,2.85,.46l.06-.3c-1.4-.43-2.83-.8-4.2-1.3-2.02-.72-4.01-1.53-5.08-3.62-.15-.3-.43-.54-.69-.76-1.54-1.28-1.99-3.2-2.84-4.88-.09-.18-.04-.43-.04-.65,0-.98,0-1.97,0-3.09-.3,.27-.48,.44-.66,.6Zm21.23-4.94c-.6,.73-.5,1.37,.05,1.97,.4,.43,.85,.84,1.57,.37-.55-.8-1.08-1.55-1.63-2.34ZM1,8.04c-.76,1.33-.78,2.29,.08,3.29,.13-.24,.36-.46,.34-.64-.1-.89-.27-1.77-.41-2.64Z"/>
      <path class="cls-3" d="M27.15,12.38c-.23,1.05-.68,1.28-1.65,.86-.9-.39-1.29-1.17-1.47-2.05-.12-.57,.39-.95,.97-.67,.67,.32,1.25,.8,1.87,1.21,.09,.22,.18,.44,.28,.65Z"/>
      <path class="cls-3" d="M13.52,4.17c1.68-.94,3.34-1.92,5.4-1.53,3.08,.59,3.16,.82,1.95,3.74-.69,1.68-2.41,2.31-3.67,3.42-2.02,1.76-4.23,3.33-5.64,5.71-.78,1.31-1.76,2.49-2.52,3.55,.69,.54,1.55,.96,2.03,1.65,.51,.73,.67,1.71,1,2.62-.47,.23-.77,.37-.94,.45,.58,.16,1.28,.24,1.84,.55,.55,.31,.97,.86,1.47,1.33,.88,.24,1.92,.52,2.95,.82,1.25,.36,2.51,.68,3.73,1.11,.57,.2,1.08,.59,1.6,.93,.62,.4,1.23,.83,1.82,1.28,.23,.18,.41,.43,.56,.68,.19,.31,.32,.65,.56,.93-.12-.76-.16-1.53-.98-2-.73-.42-.52-1.2-.45-1.89,.19-1.81,.48-3.62,.54-5.43,.08-2.47-1.01-4.44-3.05-5.83-.67-.46-1.47-.72-2.13-1.19-.71-.5-1.45-1.05-1.44-2.2l3.48,2.17,.29-.29c-.25-.34-.5-.67-.76-1.01-.23-.3-.44-.61-.7-.89-1.06-1.13-1.17-1.54-.51-2.07,1.29-1.04,2.42-1.01,3.27,.07-.68,1.15-.6,1.99,.3,3.02,.73,.83,2.07,1.13,3.15,.65,1.03,1.46,1.63,3.12,1.74,4.87,.2,3.01,.03,5.97-1.07,8.89-.63,1.69-1.18,3.63,.01,5.43,.07,.1,.11,.23,.13,.35,.01,.09-.02,.18-.06,.38-.97-.08-1.71-.59-2.26-1.3-.98-1.28-2.3-2.08-3.79-2.48-1.09-.29-1.93-.78-2.79-1.5-.71-.59-1.77-.75-2.66-1.14-1.05-.46-2.08-.97-3.12-1.45-.16-.07-.34-.12-.68-.24,.27,.43,.43,.69,.61,.97-.11,.05-.19,.11-.22,.09-1.22-.87-2.7-1.54-3.59-2.67-1.04-1.31-1.58-3.03-2.33-4.57-.19-.39-.32-.81-.53-1.18-.72-1.24-1.1-2.51-.58-3.94,.26-.7,.37-1.46,.59-2.18,.5-1.64,1.33-3.1,2.53-4.36,.69-.72,1.34-1.49,2.01-2.23,.97-.69,1.94-1.39,2.91-2.09Z"/>
      <path class="cls-3" d="M13.52,4.17c-.97,.7-1.94,1.39-2.91,2.09-1.47,1.48-2.94,2.96-4.41,4.44-.15,.16-.24,.39-.42,.5-.47,.31-1.28,.9-1.41,.79-.54-.5-1.53-.9-1.19-1.9,.32-.96,.73-1.9,1.22-2.79,.49-.9,1.12-1.71,1.69-2.57,0,0-.03,.04-.03,.04,1-.93,2.03-1.84,3-2.8,1.12-1.1,2.49-1.52,3.96-1.25,.76,.14,1.52,.67,2.13,1.19,.46,.39,.35,.93-.29,1.28-.49,.26-.9,.66-1.34,.99Z"/>
      <path class="cls-3" d="M2.4,16.54c.18-.16,.36-.33,.66-.6,0,1.13,0,2.11,0,3.09,0,.22-.05,.47,.04,.65,.86,1.68,1.3,3.59,2.84,4.88,.26,.22,.54,.47,.69,.76,1.07,2.09,3.06,2.9,5.08,3.62,1.38,.49,2.8,.87,4.2,1.3l-.06,.3c-.95-.15-1.91-.27-2.85-.46-1.65-.34-3.29-.75-4.95-1.1-.94-.19-1.6-.65-1.95-1.57-.4-1.06-1.05-1.89-2.11-2.42-.38-.19-.62-.72-.83-1.14-.44-.88-.86-1.78-1.21-2.71-.2-.51-.39-1.1-.32-1.62,.12-.95,.43-1.88,.67-2.82,.03-.06,.06-.11,.09-.16Z"/>
      <path class="cls-3" d="M6.06,4.77s.03-.04,.03-.04c-.86,.96-1.7,1.93-2.58,2.86-.21,.22-.56,.29-.85,.43-.13-.3-.34-.58-.37-.89-.1-1.08,.27-2.02,1.02-2.8,.27-.34,.54-.69,.81-1.04,.51-1.02,1.46-1.56,2.35-2.17,.13-.09,.25-.24,.39-.25,.56-.06,1.37-.32,1.62-.05,.46,.49,.08,1.13-.38,1.63-.7,.75-1.36,1.55-2.04,2.33Z"/>
      <path class="cls-3" d="M4.12,3.29c-.27,.35-.54,.69-.81,1.04-.49,.18-.99,.36-1.48,.55-.22-.6-.62-1.2-.6-1.78,.02-.53,.46-1.43,.81-1.48,.61-.09,1.33,.28,1.92,.62,.19,.11,.11,.69,.16,1.06Z"/>
      <path class="cls-3" d="M2.4,16.54c-.03,.05-.06,.11-.09,.16C.6,15.86,.01,13,1.37,11.44c-.06,.5-.1,.86-.16,1.22-.15,1.01,.26,1.85,.9,2.56,.38,.42,.56,.81,.29,1.33Z"/>
      <path class="cls-3" d="M23.63,11.6c.55,.79,1.07,1.54,1.63,2.34-.73,.47-1.17,.06-1.57-.37-.56-.59-.65-1.24-.05-1.97Z"/>
      <path class="cls-3" d="M1,8.04c.14,.88,.31,1.76,.41,2.64,.02,.19-.2,.4-.34,.64-.85-1-.84-1.96-.08-3.29Z"/>
      <path class="cls-1" d="M26.98,12.3c-.5,0-1.03-.12-1.56-.36l-.12-.06-.06-.12c-.11-.23-1.07-2.28-.24-3.27,.42-.51,1.18-.61,2.25-.31,1.6,.45,2,1.32,2.1,1.79,.13,.65-.13,1.31-.71,1.77-.46,.37-1.03,.55-1.66,.55Zm-1.12-.99c.88,.36,1.74,.31,2.31-.15,.35-.28,.51-.66,.44-1.03-.11-.52-.68-.97-1.56-1.22-.74-.21-1.26-.18-1.47,.07-.38,.45,0,1.69,.29,2.33Z"/>
      <path class="cls-2" d="M7.79,.95c-.21,.52-.31,1.13-.64,1.55-.58,.73-1.29,1.36-1.99,1.99-.19,.17-.53,.18-.81,.26,.06-.27,.07-.57,.19-.81,.25-.51,.55-1,.83-1.5,.81-.5,1.61-.99,2.42-1.49Z"/>
      <path class="cls-2" d="M4.21,2.18c.03,.71-.44,.95-1.01,.93-.69-.02-.94-.51-.92-1.15,.74-.74,1.32-.17,1.93,.22Z"/>
      <path class="cls-2" d="M8.1,16.15c-.2-1.54-.2-2.91,.44-4,.76-1.29,1.88-2.36,2.86-3.52,.24-.28,.55-.49,.8-.77,1.08-1.21,2.11-2.47,3.25-3.62,.86-.86,2.04-.89,3.17-.72,.62,.09,.65,.63,.32,.99-1.13,1.23-2.27,2.45-3.5,3.57-1.13,1.03-2.52,1.79-3.53,2.92-1.23,1.37-2.17,3-3.25,4.52-.11,.16-.26,.3-.56,.63Z"/>
      <path class="cls-2" d="M10.06,1.79c.75-.26,1.5-.52,2.24-.79,.45,.44,.57,.96,0,1.33-1.44,.97-2.92,1.87-4.39,2.78-.11,.07-.28,.03-.44,.05,.17-1.3,1.05-2.02,1.91-2.75,.23-.19,.44-.42,.66-.63Z"/>
    </g>
  </g>
</svg>